<?xml version="1.0" encoding="UTF-8" standalone="no"?>
<!-- Created with Inkscape (http://www.inkscape.org/) -->

<svg
   width="158.39645mm"
   height="28.642616mm"
   viewBox="0 0 158.39645 28.642616"
   version="1.1"
   id="svg1"
   xml:space="preserve"
   inkscape:version="1.3.2 (091e20e, 2023-11-25, custom)"
   sodipodi:docname="svg_signature_black.svg"
   inkscape:export-filename="svg_signature_black.svg"
   inkscape:export-xdpi="96"
   inkscape:export-ydpi="96"
   xmlns:inkscape="http://www.inkscape.org/namespaces/inkscape"
   xmlns:sodipodi="http://sodipodi.sourceforge.net/DTD/sodipodi-0.dtd"
   xmlns="http://www.w3.org/2000/svg"
   xmlns:svg="http://www.w3.org/2000/svg"><sodipodi:namedview
     id="namedview1"
     pagecolor="#ffffff"
     bordercolor="#000000"
     borderopacity="0.25"
     inkscape:showpageshadow="2"
     inkscape:pageopacity="0.0"
     inkscape:pagecheckerboard="true"
     inkscape:deskcolor="#d1d1d1"
     inkscape:document-units="mm"
     inkscape:export-bgcolor="#ffffff00"
     inkscape:zoom="0.72426347"
     inkscape:cx="396.26464"
     inkscape:cy="560.56949"
     inkscape:window-width="958"
     inkscape:window-height="1000"
     inkscape:window-x="2873"
     inkscape:window-y="0"
     inkscape:window-maximized="0"
     inkscape:current-layer="layer1" /><defs
     id="defs1"><filter
       inkscape:collect="always"
       style="color-interpolation-filters:sRGB"
       id="filter6"
       x="-0.00045225514"
       y="-0.0019490972"
       width="1.0009045"
       height="1.0038982"><feGaussianBlur
         inkscape:collect="always"
         stdDeviation="0.002957728"
         id="feGaussianBlur6" /></filter></defs><g
     inkscape:label="Layer 1"
     inkscape:groupmode="layer"
     id="layer1"
     transform="translate(-26.360369,-194.81497)"><g
       id="g7"><g
         id="g6"
         style="image-rendering:optimizeQuality"
         inkscape:export-filename="svg_signature_black_transparent_background.svg"
         inkscape:export-xdpi="23.298328"
         inkscape:export-ydpi="23.298328"><path
           id="path2"
           style="fill:#000000;stroke-width:1.39513"
           d="m 43.882075,194.81591 c -0.168511,0.0138 -0.507728,0.17799 -1.131995,0.50242 -1.224793,0.6366 -1.908312,0.70073 -6.506364,0.61012 -5.009969,-0.0987 -5.160154,-0.0804 -6.035669,0.74443 -0.493811,0.46557 -0.632142,0.67405 -0.307668,0.46405 0.891407,-0.57685 3.367027,-0.89595 4.937997,-0.63636 l 1.397986,0.23105 -1.460501,2.31945 c -2.21968,3.52495 -3.632962,5.24313 -6.13373,7.45687 -1.254889,1.11083 -2.281763,2.08515 -2.281763,2.16516 0,0.48057 0.99242,-0.0709 2.921613,-1.62398 2.151749,-1.73224 5.757564,-6.1284 7.144987,-8.71037 0.671233,-1.24913 0.775221,-1.2992 2.690556,-1.29973 2.255221,-6e-4 4.678048,-0.90646 4.871804,-1.82172 0.05891,-0.27827 0.06126,-0.41515 -0.10725,-0.40139 z m 46.471832,0.0544 c -0.22226,-0.0226 -0.74221,0.0953 -1.34405,0.31681 -1.86018,0.68465 -4.953396,0.72837 -9.043083,0.12805 -4.875735,-0.71567 -7.214414,0.17596 -8.158696,3.11049 -0.238236,0.74036 -0.162653,0.70513 0.519724,-0.24123 0.999287,-1.38589 2.315958,-2.15794 4.119798,-2.41579 2.531379,-0.36184 2.798199,0.015 1.263765,1.7857 -0.749212,0.86456 -1.674309,2.03777 -2.056222,2.60728 -0.500771,0.74672 -0.993314,1.03539 -1.766328,1.03539 -0.589544,0 -1.186007,0.1621 -1.325053,0.36027 -0.163938,0.23361 0.1047,0.28158 0.763652,0.13589 0.558915,-0.12357 1.01616,-0.082 1.01616,0.0928 0,0.47543 -2.682445,4.31486 -3.665653,5.24667 -1.978295,1.87484 -4.284279,2.16606 -4.98764,0.62969 -0.332799,-0.72699 -0.343534,-0.728 -0.367729,-0.0388 -0.01371,0.3906 0.187212,0.89721 0.446792,1.12585 0.25958,0.22866 1.144137,0.41549 1.965514,0.41549 1.911096,0 3.83652,-1.48725 6.01851,-4.64869 1.53432,-2.22302 1.607275,-2.27444 2.949805,-2.09076 0.939891,0.12859 1.626396,0.0111 2.163476,-0.37045 0.765219,-0.54352 0.757653,-0.55353 -0.262927,-0.36263 -0.577007,0.10795 -1.425108,0.0736 -1.885227,-0.0763 -0.82261,-0.26805 -0.816118,-0.29841 0.410631,-1.81821 2.73524,-3.38875 2.856671,-3.45118 6.719034,-3.45118 3.337957,0 6.620977,-0.69672 6.620977,-1.40545 0,-0.04 -0.0411,-0.0633 -0.11522,-0.0708 z m 57.833453,0.56117 c -0.14471,0.0198 -0.28785,0.0724 -0.41185,0.1629 -0.26094,0.19051 -2.06144,0.73988 -4.00152,1.22101 -1.96588,0.48753 -3.75069,1.1435 -4.03154,1.48182 -0.76258,0.91864 -0.60365,1.25508 0.24147,0.51065 0.41019,-0.36131 1.9812,-0.90445 3.49098,-1.20692 1.50978,-0.30248 3.07697,-0.6596 3.48241,-0.79338 0.45692,-0.15077 0.0502,0.47279 -1.06949,1.64003 -3.28256,3.42192 -8.22002,9.49445 -8.2212,10.11112 -7.5e-4,0.33345 0.0636,0.6062 0.14341,0.6062 0.0797,0 1.35439,-1.40585 2.83213,-3.12419 2.07454,-2.41234 2.76286,-3.00439 3.0209,-2.59827 0.18378,0.28928 0.60971,0.52592 0.9469,0.52592 0.43403,0 0.55329,0.2278 0.40879,0.77968 -0.66214,2.52845 -0.66792,2.89551 -0.0594,3.55769 0.34683,0.37738 0.508,0.47647 0.35852,0.22047 -0.14947,-0.25598 -0.0541,-1.36882 0.21206,-2.47335 0.48092,-1.99624 0.49356,-2.00968 2.11077,-2.23017 5.09402,-0.69451 10.18659,-5.16755 8.03796,-7.06016 -1.08649,-0.95702 -4.81158,-0.0548 -7.65184,1.85344 -1.81422,1.21889 -1.88579,1.05905 -0.32973,-0.7366 0.75567,-0.87203 1.37408,-1.72046 1.37408,-1.88516 0,-0.38655 -0.44967,-0.62195 -0.88378,-0.56273 z m -20.57386,0.92339 c -1.74576,0.0962 -4.03986,1.01319 -5.97806,2.55558 -0.86161,0.68567 -2.16475,1.347 -2.89587,1.46968 -1.53285,0.25718 -3.32799,0.99498 -3.69569,1.51902 -0.13917,0.19837 0.33628,0.0442 1.05661,-0.34265 0.72034,-0.38684 1.71343,-0.70377 2.20699,-0.70449 0.87579,-0.002 0.86616,0.0362 -0.39346,1.55505 -1.02862,1.24026 -1.47088,1.51979 -2.1788,1.37804 -1.16774,-0.2338 -2.93861,0.59665 -3.60253,1.68936 -1.0009,1.64735 0.43031,2.63774 2.00167,1.3851 0.67396,-0.53719 0.71954,-0.52987 0.71954,0.11552 0,0.37884 0.11753,0.79285 0.26169,0.91987 0.14422,0.12699 0.51984,0.23105 0.83475,0.23105 0.46651,0 0.48135,-0.0974 0.0791,-0.52436 -0.40944,-0.43457 -0.23865,-0.86366 1.00023,-2.51173 0.82176,-1.09317 2.03994,-2.56933 2.7071,-3.28043 1.2023,-1.28151 1.23905,-1.2929 4.1627,-1.29973 4.51216,-0.0104 7.45357,-1.65798 6.06876,-3.39948 -0.45753,-0.57539 -1.30723,-0.81311 -2.3547,-0.7554 z m -68.189332,0.0912 c -1.490378,-0.005 -3.614524,0.8447 -6.114732,2.50037 -1.293642,0.85667 -2.709651,1.5756 -3.14654,1.59773 -0.691265,0.035 -0.702011,0.0612 -0.08519,0.20207 0.622426,0.14219 0.546956,0.33797 -0.617173,1.60557 -2.33641,2.54404 -3.878282,4.72991 -3.608041,5.11508 0.15927,0.227 0.689762,-0.0811 1.347117,-0.78242 0.596416,-0.63628 1.846133,-1.53287 2.776971,-1.99246 l 1.692783,-0.83568 -1.084803,1.25234 c -1.240006,1.432 -1.214205,2.44715 0.06619,2.60806 0.992112,0.12468 1.228357,-0.51758 0.254346,-0.69157 -0.50443,-0.0901 -0.389417,-0.3753 0.589593,-1.45871 0.669356,-0.74071 1.217185,-1.48615 1.217185,-1.65647 0,-0.62265 -1.141057,-0.66977 -2.39392,-0.0991 l -1.285215,0.58505 1.234958,-1.37295 c 1.778749,-1.97827 1.95685,-2.05791 5.087541,-2.27755 4.479366,-0.31427 7.003456,-1.72304 6.011767,-3.35524 -0.382626,-0.62975 -1.048613,-0.94095 -1.942838,-0.94415 z m 94.559842,0.57174 c 1.76229,-0.1159 2.12438,0.90269 -0.53689,3.16217 -1.19322,1.01308 -2.75715,1.90419 -4.14432,2.36136 -2.62745,0.86593 -3.3071,0.8938 -4.36127,0.17856 -0.76469,-0.51884 -0.73195,-0.57628 1.1798,-2.05825 2.93827,-2.27771 6.10039,-3.52794 7.86268,-3.64384 z m -25.94762,0.0211 c 0.16254,-0.005 0.31583,-0.002 0.45782,0.0118 0.68156,0.064 1.10809,0.34538 1.10809,0.85995 0,0.44392 -0.4885,0.89606 -1.37653,1.27388 -1.67257,0.71213 -6.29247,1.22851 -6.29247,0.7041 0,-0.1972 0.82188,-0.83818 1.82639,-1.42425 1.53569,-0.89601 3.13886,-1.38792 4.2767,-1.42544 z m -68.570546,0.13041 c 0.880624,-0.005 1.50524,0.29482 1.50524,0.84155 0,0.84903 -1.736962,1.66589 -4.496721,2.11425 v 3.9e-4 c -1.283547,0.20853 -2.478421,0.37907 -2.655008,0.37907 -1.276128,0 1.42916,-2.09147 3.864839,-2.9883 0.632689,-0.23287 1.253275,-0.34444 1.78165,-0.34696 z m -11.014728,3.75976 c -0.581469,0.0984 -2.425791,0.92978 -2.425791,1.1372 0,0.0873 0.617242,-0.10056 1.371632,-0.41744 0.754389,-0.31688 1.301917,-0.63793 1.216572,-0.7131 -0.02249,-0.0198 -0.07934,-0.0205 -0.162413,-0.007 z m 86.657324,0.96059 c -1.18975,0 -2.1624,0.11712 -2.16164,0.26003 7.5e-4,0.1429 0.9745,0.30609 2.16348,0.36262 1.31782,0.0627 2.16164,-0.0386 2.16164,-0.25964 0,-0.20863 -0.91906,-0.36301 -2.16348,-0.36301 z m -5.90635,1.38588 c -0.88318,0 -2.61752,0.84189 -3.49588,1.6968 -0.92709,0.90237 -0.50166,0.941 0.88562,0.0807 0.57417,-0.35609 1.48525,-0.76822 2.02435,-0.91596 0.87498,-0.23982 0.92299,-0.20793 0.4474,0.29683 -0.29301,0.31099 -1.13222,0.89179 -1.86501,1.29072 -1.32266,0.72005 -1.87279,1.6283 -0.74219,1.22532 0.32447,-0.11566 0.85532,-0.30458 1.17979,-0.42019 0.36832,-0.13128 0.5896,-0.0151 0.5896,0.30937 0,0.28581 -0.27654,0.61289 -0.61473,0.7272 -0.33811,0.11431 -0.49277,0.38175 -0.34382,0.59405 0.18511,0.26388 -0.0253,0.312 -0.66376,0.15273 -0.61876,-0.15429 -0.75876,-0.12561 -0.41492,0.085 0.4006,0.24533 0.24636,0.5202 -0.67539,1.20338 -2.70541,2.00522 -8.02398,4.06717 -10.49071,4.06717 -1.2318,0 -2.63586,-1.08357 -2.3259,-1.7951 0.30849,-0.70811 2.39567,-1.60978 4.62175,-1.99677 l 1.6652,-0.28939 -1.49053,-0.038 c -1.86769,-0.0476 -4.49728,1.10569 -5.07711,2.22665 -0.35912,0.69428 -0.31289,0.97436 0.25311,1.52528 0.38127,0.37109 1.07299,0.73776 1.53712,0.81492 h 6.1e-4 c 3.50598,0.58094 11.34639,-2.48756 13.74819,-5.38098 0.47335,-0.57027 1.47706,-1.40874 2.23027,-1.86285 1.41034,-0.85019 1.36849,-1.12075 -0.0687,-0.44329 -1.23577,0.58257 -1.68526,-0.33455 -0.64292,-1.31186 0.88724,-0.83187 0.73843,-1.8417 -0.27151,-1.8417 z m -19.57608,0.02 c -0.42645,-0.0656 -1.13004,0.13706 -2.04826,0.6716 l -1.18042,0.68686 -0.20347,-0.7362 c -0.17551,-0.63408 -0.39837,-0.4776 -1.6076,1.12937 -0.77224,1.02625 -1.32842,2.06469 -1.23556,2.30731 0.10484,0.27409 1.05738,-0.2835 2.51527,-1.47241 1.29052,-1.05244 2.51354,-1.91376 2.71752,-1.91376 0.61364,0 0.42021,0.54629 -0.43454,1.22767 -1.14358,0.91159 -0.89766,2.38889 0.41186,2.47413 0.56791,0.037 0.69233,-0.0104 0.2948,-0.11199 -0.92944,-0.23764 -0.86711,-0.65739 0.2954,-1.99991 1.12579,-1.30011 1.18572,-2.15349 0.475,-2.26267 z m 51.3228,0.0329 c -0.42224,-0.0428 -0.83242,0.24563 -1.74427,0.97626 -0.98223,0.78701 -1.12207,1.03142 -0.59572,1.0393 0.37854,0.005 0.68827,0.24403 0.68827,0.52984 0,0.28581 -0.30973,0.53198 -0.68827,0.54706 -0.44462,0.0177 -0.50694,0.0915 -0.1759,0.20834 0.3835,0.13533 0.33392,0.29993 -0.19673,0.65437 -0.67076,0.44798 -0.66407,0.47434 0.12748,0.4848 1.10369,0.0145 1.62679,-0.59164 1.78594,-2.06922 0.10211,-0.94835 0.32232,-1.23511 1.01371,-1.32165 0.69843,-0.0874 0.8357,0.0217 0.65823,0.52004 -0.20078,0.56377 -0.17395,0.56029 0.25373,-0.0321 0.39704,-0.54995 0.35609,-0.74058 -0.24209,-1.12585 -0.37327,-0.24042 -0.63104,-0.3855 -0.88438,-0.41118 z m 5.50613,0 c -0.42225,-0.0428 -0.8318,0.24563 -1.74364,0.97626 -0.98224,0.78701 -1.12268,1.03142 -0.59635,1.0393 0.37855,0.005 0.68827,0.24403 0.68827,0.52984 0,0.28581 -0.30972,0.53198 -0.68827,0.54706 -0.44463,0.0177 -0.50693,0.0915 -0.17589,0.20834 0.3835,0.13533 0.3339,0.29993 -0.19674,0.65437 -0.67075,0.44798 -0.66406,0.47434 0.12749,0.4848 1.10368,0.0145 1.62677,-0.59164 1.78594,-2.06922 0.10211,-0.94835 0.32233,-1.23511 1.01371,-1.32165 0.69844,-0.0874 0.8357,0.0217 0.65823,0.52004 -0.20078,0.56377 -0.17395,0.56029 0.25373,-0.0321 0.39705,-0.54995 0.35607,-0.74058 -0.24209,-1.12585 -0.37326,-0.24042 -0.63103,-0.3855 -0.88439,-0.41118 z m -121.531578,0.0811 c -1.022259,0.13503 -4.404175,2.86097 -4.404175,3.6317 0,0.30396 0.482136,-0.0683 1.071319,-0.82706 0.866722,-1.11619 1.099791,-1.255 1.219023,-0.72798 0.08105,0.35826 -0.09137,0.78445 -0.383052,0.94728 -0.430365,0.24025 -0.419301,0.29943 0.05945,0.31367 0.357047,0.0106 0.201605,0.21296 -0.39347,0.5126 l -0.983064,0.49578 1.002676,0.0117 c 1.389779,0.017 1.947128,-0.59423 1.947128,-2.13579 0,-1.06642 0.143192,-1.31656 0.753847,-1.31656 0.414606,0 0.842695,0.19494 0.951807,0.43311 0.109112,0.23819 0.212752,0.0821 0.22983,-0.34657 0.01708,-0.42871 -0.04313,-0.77928 -0.133607,-0.77928 -0.09047,0 -0.435523,-0.0917 -0.766718,-0.20364 -0.04548,-0.0154 -0.102838,-0.018 -0.170994,-0.009 z m 49.525215,0.0164 c -0.45536,0.006 -1.0817,0.1788 -1.7651,0.51691 -1.12219,0.5552 -1.42802,0.60103 -1.42802,0.21342 0,-1.02182 -0.76493,-0.85251 -1.39001,0.3078 -0.35694,0.66254 -0.89793,1.38684 -1.20248,1.60947 -0.30455,0.22264 -0.55405,0.69762 -0.55405,1.05537 0,0.95687 0.45377,0.8008 1.71301,-0.58936 1.04779,-1.15673 3.19397,-2.5674 3.91142,-2.56968 0.17324,-7e-4 -0.1505,0.53692 -0.72014,1.19477 -1.23168,1.42242 -1.15085,2.39664 0.21267,2.5552 0.90625,0.10539 0.92601,0.079 0.26599,-0.35753 -0.67542,-0.44674 -0.6495,-0.54251 0.49154,-1.80724 0.66264,-0.73447 1.20492,-1.4748 1.20492,-1.64512 0,-0.32911 -0.28439,-0.49001 -0.73975,-0.48401 z m -9.106822,0.0427 c -0.248314,-0.007 -0.448353,0.0604 -0.641076,0.20128 -0.744071,0.54395 -0.69059,1.81455 0.06557,1.55896 0.324472,-0.10966 0.589593,-0.0672 0.589593,0.094 0,0.16123 -0.265121,0.48726 -0.589593,0.72446 -0.610185,0.44606 -0.787187,1.44302 -0.327892,1.84757 0.501346,0.44161 1.000393,0.22748 0.759362,-0.32581 -0.150587,-0.34564 0.20586,-1.0073 0.940775,-1.74458 0.651043,-0.65315 1.182213,-1.29895 1.181033,-1.43522 -0.002,-0.13628 -0.47357,-0.44032 -1.048651,-0.67551 -0.384161,-0.15709 -0.680818,-0.23817 -0.929129,-0.24514 z m -48.623668,0.15351 c -0.803243,0 -3.27831,2.20524 -3.27831,2.92094 0,0.883 1.150528,1.0547 2.469304,0.3685 0.996375,-0.51848 1.162054,-0.53479 0.970194,-0.0944 -0.127251,0.29209 -0.03307,0.7061 0.209607,0.91987 0.696806,0.61378 1.147219,0.45407 0.872131,-0.30937 -0.156283,-0.43373 0.06899,-1.15498 0.594497,-1.90396 l 0.845779,-1.20535 -1.040064,-0.34813 c -0.571838,-0.19151 -1.311113,-0.34813 -1.643138,-0.34813 z m 85.809093,0.0493 c -0.49763,-0.0348 -1.18778,0.16298 -1.92016,0.67042 -1.92694,1.33515 -2.30159,3.18161 -0.72014,3.54829 0.36838,0.0854 0.74171,0.17329 0.82924,0.19541 0.0876,0.0221 -0.13927,-0.25024 -0.50379,-0.60502 -0.62684,-0.61013 -0.60013,-0.70382 0.49031,-1.73205 0.6341,-0.59792 1.38242,-1.08709 1.66336,-1.08709 0.39722,0 0.40625,0.0921 0.0393,0.41549 -0.25959,0.22865 -0.46617,0.57961 -0.45905,0.77968 0.007,0.20008 0.35212,0.005 0.76671,-0.43272 0.93796,-0.99099 0.64369,-1.69448 -0.18571,-1.75241 z m -41.301546,0.002 c -0.503293,-0.0302 -1.201325,0.17352 -1.942226,0.68687 -1.817104,1.25904 -2.186176,3.1805 -0.678461,3.53224 0.360136,0.084 0.726311,0.17093 0.813909,0.19306 0.08761,0.0221 -0.138663,-0.25024 -0.503177,-0.60503 -0.626848,-0.61012 -0.600131,-0.70382 0.490306,-1.73204 0.634093,-0.59792 1.382415,-1.08709 1.663365,-1.08709 0.397299,0 0.405687,0.0921 0.03862,0.41549 -0.25958,0.22865 -0.465553,0.5796 -0.458437,0.77967 0.0072,0.20008 0.352129,0.005 0.766716,-0.43271 0.946079,-0.99956 0.648216,-1.70003 -0.190606,-1.75046 z m -23.563503,0.0681 c -1.379709,-0.0191 -2.819319,0.77217 -3.359824,1.92158 -0.853578,1.81519 0.516399,2.41323 2.267667,0.98997 l 0.959161,-0.77929 -0.287443,0.82275 c -0.191279,0.54721 -0.109206,0.92264 0.245767,1.12076 0.838223,0.46782 1.066569,0.36408 0.844552,-0.38377 -0.113037,-0.38073 0.08064,-1.07683 0.430244,-1.54682 0.928304,-1.24796 0.783432,-1.83475 -0.515434,-2.08605 -0.191883,-0.0371 -0.387591,-0.0564 -0.58469,-0.0591 z m 42.476449,0 c -1.379703,-0.0191 -2.818693,0.77257 -3.359203,1.92197 -0.85358,1.8152 0.51579,2.41323 2.26705,0.98997 l 0.959173,-0.77968 -0.287453,0.82275 c -0.19128,0.54721 -0.10864,0.92264 0.24638,1.12076 0.838573,0.46783 1.066563,0.36407 0.844543,-0.38377 -0.11303,-0.38074 0.08,-1.07683 0.42964,-1.54682 0.92829,-1.24796 0.78342,-1.83476 -0.51544,-2.08605 -0.19188,-0.0371 -0.3876,-0.0564 -0.58469,-0.0591 z m 54.55454,0.0564 c -1.01082,6.6e-4 -2.43498,0.85072 -2.84011,2.13579 -0.22987,0.72919 -0.41863,1.43338 -0.41982,1.56444 -0.001,0.13106 0.39584,0.22145 0.88255,0.20129 1.18703,-0.0493 3.44134,-1.94639 3.44134,-2.89589 0,-0.70069 -0.45748,-1.00604 -1.06396,-1.00563 z m -69.253917,0.19619 c 0.05095,0.002 0.09353,0.0144 0.123803,0.0411 0.1211,0.10666 -0.09751,0.30061 -0.485404,0.43076 -0.560527,0.188 -0.605566,0.14792 -0.220024,-0.19423 0.200089,-0.17758 0.428777,-0.28163 0.581625,-0.27765 z m -48.189133,0.32046 c 0.851304,0 0.589186,0.5771 -0.693783,1.52803 -1.187105,0.87985 -1.936711,1.134 -1.936711,0.65632 0,-0.43735 2.103868,-2.18435 2.630494,-2.18435 z m 20.374061,0 c 0.851274,0 0.176414,1.0929 -1.14609,1.85619 -1.149974,0.66372 -1.406566,0.70159 -1.406566,0.20676 0,-0.56173 1.857623,-2.06295 2.552656,-2.06295 z m 42.476449,0 c 0.85127,0 0.1764,1.0933 -1.146083,1.85657 -1.14998,0.66373 -1.40596,0.70121 -1.40596,0.20638 0,-0.56174 1.85702,-2.06295 2.552043,-2.06295 z m 15.26446,0.0752 c 0.0735,0.009 0.13536,0.0325 0.18203,0.0737 0.12794,0.1127 -0.27463,0.67095 -0.8942,1.24059 -1.43881,1.32279 -2.46898,1.42798 -1.52241,0.15547 0.62156,-0.83559 1.71964,-1.52953 2.23458,-1.46968 z m 39.21224,0.27138 c 0.99986,0 0.99268,0.36849 -0.0288,1.51236 -0.81312,0.91055 -1.93794,1.23275 -1.93794,0.55529 0,-0.19652 0.26574,-0.44673 0.59022,-0.55646 0.32444,-0.10967 0.5902,-0.49457 0.5902,-0.85526 0,-0.42486 0.27674,-0.65593 0.78633,-0.65593 z m 8.90274,1.18772 c -0.0408,-0.0461 -0.23652,0.0547 -0.61963,0.26551 -0.81713,0.4495 -1.03075,1.00835 -0.54792,1.43365 0.34715,0.30577 0.54408,0.2928 0.44066,-0.029 -0.0459,-0.1429 0.14158,-0.61753 0.41676,-1.05498 0.23663,-0.37613 0.35094,-0.56912 0.31013,-0.6152 z m -5.87511,0.30897 c -0.0199,-0.009 -0.0562,-0.008 -0.1097,0.002 -0.0713,0.0139 -0.17277,0.0443 -0.30582,0.0893 -0.65931,0.22285 -0.85473,0.88401 -0.38368,1.29894 0.40333,0.35521 0.60127,0.27406 0.31749,-0.1304 -0.13956,-0.19889 -0.0363,-0.59222 0.22921,-0.87406 0.22388,-0.23759 0.3124,-0.35788 0.2525,-0.38573 z m -75.616237,0.61952 c -0.212953,-0.002 -0.709181,0.15806 -1.352632,0.48206 v -7.6e-4 c -0.630237,0.31735 -0.763167,0.49963 -0.370181,0.50752 0.337208,0.007 0.957248,-0.21641 1.377148,-0.49616 0.488854,-0.32541 0.558619,-0.49038 0.345665,-0.49264 z m 41.296647,3.9e-4 c -0.21295,-0.002 -0.70858,0.15767 -1.35202,0.48167 -0.6298,0.31719 -0.76306,0.49885 -0.37018,0.50673 0.33721,0.007 0.95665,-0.21641 1.37654,-0.49615 0.48886,-0.32542 0.55862,-0.48999 0.34566,-0.49225 z m 15.32085,7.30923 c -0.17549,-0.004 -0.37384,0.0185 -0.61105,0.0603 -0.62418,0.10996 -1.79137,0.59276 -2.59371,1.07298 -1.98396,1.1875 -3.70288,1.12991 -6.06142,-0.20324 -1.99347,-1.12679 -3.8673,-1.18965 -3.8673,-0.12961 0,0.28217 -0.17715,0.51299 -0.39346,0.51299 -0.21632,0 -0.39285,0.23384 -0.39285,0.51965 0,0.28582 0.17653,0.51966 0.39285,0.51966 0.21631,0 0.39346,-0.22433 0.39346,-0.4989 0,-0.90212 0.63658,-0.8753 2.95227,0.12492 2.97788,1.28625 5.62744,1.34308 7.93376,0.17035 1.84575,-0.93854 3.77215,-1.13555 3.43031,-0.35088 -0.2522,0.57891 0.46715,1.06622 0.82371,0.55803 0.13678,-0.19495 -0.14112,-0.83614 -0.61717,-1.42503 -0.54275,-0.67134 -0.86296,-0.91962 -1.3894,-0.93123 z m -19.72257,0.74326 c -8.16939,0.0154 -24.030463,0.31644 -25.858133,0.56664 -1.12549,0.15408 5.13996,0.28657 14.650343,0.30976 15.09303,0.0368 18.01353,-0.10625 16.0085,-0.78399 -0.20928,-0.0707 -2.07759,-0.0976 -4.80071,-0.0924 z m 28.04858,0.002 c -2.67985,-0.005 -4.51542,0.0202 -4.72104,0.0897 -0.33718,0.11396 -0.61288,0.34637 -0.61288,0.51653 0,0.1773 7.0927,0.29132 16.61709,0.26707 9.45031,-0.024 15.68381,-0.15596 14.45361,-0.30584 -2.05561,-0.25045 -17.69724,-0.55039 -25.73678,-0.56744 z m -13.84012,0.0145 c -0.13168,-0.005 -0.27981,-7.6e-4 -0.44127,0.0161 -1.36525,0.1426 -1.36067,0.14086 -1.14242,0.45191 0.29898,0.42613 2.22354,0.29428 2.22354,-0.15233 0,-0.18461 -0.24483,-0.29862 -0.63985,-0.31563 z m 51.5698,8.25259 c -0.007,0.0971 -0.0186,0.19353 -0.0319,0.28978 0.0465,-0.0856 0.0866,-0.16153 0.12687,-0.28078 -0.0317,-0.003 -0.0667,-0.009 -0.095,-0.009 z"
           inkscape:label="path2"
           inkscape:export-filename="svg_signature_black_transparent_background.svg"
           inkscape:export-xdpi="46.503567"
           inkscape:export-ydpi="46.503567" /><text
           xml:space="preserve"
           style="font-style:italic;font-variant:normal;font-weight:normal;font-stretch:condensed;font-size:4.29404px;font-family:'Bodoni MT';-inkscape-font-specification:'Bodoni MT, Italic Condensed';font-variant-ligatures:normal;font-variant-caps:normal;font-variant-numeric:normal;font-variant-east-asian:normal;mix-blend-mode:normal;fill:#000000;stroke-width:0;stroke-dasharray:none;filter:url(#filter6)"
           x="99.62162"
           y="237.36928"
           id="text5"
           inkscape:export-filename="svg_signature_black_transparent_background.svg"
           inkscape:export-xdpi="96"
           inkscape:export-ydpi="96"
           transform="matrix(2.0581944,0,0,1.0624994,-88.824941,-29.721519)"><tspan
             sodipodi:role="line"
             id="tspan6"
             x="99.62162"
             y="237.36928">Photography</tspan></text></g></g></g></svg>
